<svg width="95" height="76" viewBox="0 0 95 76" fill="none" xmlns="http://www.w3.org/2000/svg">
<path d="M46.9108 35.3909H39.7974V23.4778H48.2362C52.8242 23.4778 55.428 25.5247 55.428 29.2265C55.428 33.1792 52.3968 35.3909 46.903 35.3909H46.9108ZM48.1813 40.12H39.8014V53.2488H48.5499C54.2712 53.2488 57.3024 50.9548 57.3024 46.6413C57.3024 42.3278 54.1849 40.12 48.1813 40.12ZM94.8691 35.9791V40.7553C90.4458 41.1788 87.744 44.4571 86.1401 49.649C84.5441 54.8212 84.3245 61.166 84.4931 66.0638C84.6696 71.1615 80.6973 75.8672 75.3289 75.8672H20.3043C14.9321 75.8672 10.9597 71.1615 11.1401 66.0638C11.3087 61.166 11.0891 54.8212 9.49315 49.649C7.88539 44.4571 5.17965 41.1788 0.756348 40.7553V35.9791C5.17965 35.5556 7.88931 32.2773 9.48922 27.0854C11.0891 21.9131 11.3087 15.5684 11.1362 10.6706C10.9597 5.57282 14.9321 0.867188 20.3043 0.867188H75.3289C80.7012 0.867188 84.6696 5.57282 84.4931 10.6706C84.3245 15.5684 84.5441 21.9131 86.1401 27.0854C87.744 32.2773 90.4458 35.5556 94.8691 35.9791ZM63.7844 47.0256C63.7844 41.716 60.0474 37.877 54.4986 37.2692V37.0457C58.5769 36.383 61.7767 32.5949 61.7767 28.3677C61.7767 22.3406 57.0201 18.4153 49.7695 18.4153H33.4566V58.3034H49.8518C58.5494 58.3034 63.7844 54.0448 63.7844 47.0256Z" fill="black"/>
</svg>
