<svg width="68" height="76" viewBox="0 0 68 76" fill="none" xmlns="http://www.w3.org/2000/svg">
<path d="M66.9602 1.90955C66.3655 1.24594 65.5172 0.867188 64.6282 0.867188H4.0084C3.11941 0.867188 2.27113 1.24594 1.67638 1.90955C1.08164 2.57316 0.799923 3.45901 0.89696 4.34173L7.7897 66.392C7.92743 67.6535 8.81954 68.7084 10.0403 69.0558L33.4543 75.7451C33.7361 75.8265 34.0272 75.8672 34.3152 75.8672C34.6031 75.8672 34.8942 75.8265 35.176 75.7451L58.59 69.0558C59.8108 68.7084 60.6998 67.6535 60.8406 66.392L67.7365 4.34173C67.8367 3.45901 67.5549 2.57316 66.9602 1.90955ZM51.5846 32.401L50.1885 55.2046L34.4185 60.3601L18.6484 55.2046L18.0506 44.2989H26.0326L26.2329 49.2572L34.4185 52.0337L42.604 49.2572L43.2018 40.3361H25.6351L25.2375 32.4041H43.6025L44.2004 24.4722H16.6513L16.0535 16.5371H52.5831L51.5846 32.401Z" fill="black"/>
</svg>
