<svg width="75" height="76" viewBox="0 0 75 76" fill="none" xmlns="http://www.w3.org/2000/svg">
<path d="M37.5 3.85938V24.8594H27C21.2175 24.8594 16.5 20.1419 16.5 14.3594C16.5 8.57687 21.2175 3.85938 27 3.85938H37.5ZM37.5 27.8594V48.8594H27C21.2175 48.8594 16.5 44.1419 16.5 38.3594C16.5 32.5769 21.2175 27.8594 27 27.8594H37.5ZM37.5 51.8594V62.3594C37.5 68.1419 32.7825 72.8594 27 72.8594C21.2175 72.8594 16.5 68.1419 16.5 62.3594C16.5 56.5769 21.2175 51.8594 27 51.8594H37.5ZM61.5 14.3594C61.5 20.1419 56.7825 24.8594 51 24.8594H40.5V3.85938H51C56.7825 3.85938 61.5 8.57687 61.5 14.3594ZM51 27.8594C48.2152 27.8594 45.5445 28.9656 43.5754 30.9348C41.6062 32.9039 40.5 35.5746 40.5 38.3594C40.5 41.1441 41.6062 43.8149 43.5754 45.784C45.5445 47.7531 48.2152 48.8594 51 48.8594C53.7848 48.8594 56.4555 47.7531 58.4246 45.784C60.3938 43.8149 61.5 41.1441 61.5 38.3594C61.5 35.5746 60.3938 32.9039 58.4246 30.9348C56.4555 28.9656 53.7848 27.8594 51 27.8594Z" fill="black"/>
</svg>
