<svg width="75" height="76" viewBox="0 0 75 76" fill="none" xmlns="http://www.w3.org/2000/svg">
<path d="M70.1895 33.9941L41.8652 5.66992C40.6641 4.46289 39.082 3.85938 37.5 3.85938C35.918 3.85938 34.3359 4.46289 33.1348 5.66992L27.5332 11.2715L34.4648 18.2031C36.7676 16.8496 39.7676 17.1426 41.7422 19.1172C43.7168 21.0918 44.0039 24.0918 42.6504 26.3887L49.4648 33.2031C51.7676 31.8496 54.7676 32.1426 56.7422 34.1172C59.0859 36.4609 59.0859 40.2578 56.7422 42.6016C54.3984 44.9453 50.6016 44.9453 48.2578 42.6016C46.2832 40.627 45.9902 37.627 47.3438 35.3242L40.5293 28.5098C40.043 28.7969 39.5332 29.0078 39 29.1426V47.5703C41.584 48.2383 43.5 50.5645 43.5 53.3594C43.5 56.6758 40.8164 59.3594 37.5 59.3594C34.1836 59.3594 31.5 56.6758 31.5 53.3594C31.5 50.5645 33.416 48.2383 36 47.5703V29.1426C34.998 28.8848 34.043 28.3867 33.2578 27.6016C31.2832 25.627 30.9961 22.627 32.3496 20.3301L25.4121 13.3926L4.81055 33.9941C2.39648 36.4023 2.39648 40.3164 4.81055 42.7246L33.1348 71.0488C34.3359 72.2559 35.918 72.8594 37.5 72.8594C39.082 72.8594 40.6641 72.2559 41.8652 71.0488L70.1895 42.7246C72.6035 40.3164 72.6035 36.4023 70.1895 33.9941Z" fill="black"/>
</svg>
