<svg width="75" height="76" viewBox="0 0 75 76" fill="none" xmlns="http://www.w3.org/2000/svg">
<path d="M37.5 8.35938C20.9325 8.35938 7.5 21.7919 7.5 38.3594C7.5 52.4169 17.18 64.1794 30.23 67.4344C30.09 67.0294 30 66.5594 30 65.9769V60.8494C28.7825 60.8494 26.7425 60.8494 26.23 60.8494C24.1775 60.8494 22.3525 59.9669 21.4675 58.3269C20.485 56.5044 20.315 53.7169 17.88 52.0119C17.1575 51.4444 17.7075 50.7969 18.54 50.8844C20.0775 51.3194 21.3525 52.3744 22.5525 53.9394C23.7475 55.5069 24.31 55.8619 26.5425 55.8619C27.625 55.8619 29.245 55.7994 30.77 55.5594C31.59 53.4769 33.0075 51.5594 34.74 50.6544C24.75 49.6269 19.9825 44.6569 19.9825 37.9094C19.9825 35.0044 21.22 32.1944 23.3225 29.8269C22.6325 27.4769 21.765 22.6844 23.5875 20.8594C28.0825 20.8594 30.8 23.7744 31.4525 24.5619C33.6925 23.7944 36.1525 23.3594 38.7375 23.3594C41.3275 23.3594 43.7975 23.7944 46.0425 24.5669C46.6875 23.7844 49.4075 20.8594 53.9125 20.8594C55.7425 22.6869 54.865 27.4994 54.1675 29.8444C56.2575 32.2069 57.4875 35.0094 57.4875 37.9094C57.4875 44.6519 52.7275 49.6194 42.7525 50.6519C45.4975 52.0844 47.5 56.1094 47.5 59.1419V65.9769C47.5 66.2369 47.4425 66.4244 47.4125 66.6469C59.1025 62.5494 67.5 51.4494 67.5 38.3594C67.5 21.7919 54.0675 8.35938 37.5 8.35938Z" fill="black"/>
</svg>
