<svg width="75" height="76" viewBox="0 0 75 76" fill="none" xmlns="http://www.w3.org/2000/svg">
<g clip-path="url(#clip0_196_177)">
<path d="M42.1031 75.6999C41.1258 75.5288 40.1133 75.0647 39.5391 74.5515C39.1477 74.1483 38.9297 73.5999 38.9156 73.0374C38.9156 72.4632 39.2086 71.6569 39.6727 70.853C39.9539 70.4007 40.1742 69.9132 40.3313 69.3999C40.4297 69.046 40.636 68.4718 40.7953 68.1061L41.0766 67.4358L41.1492 62.9569C41.1867 60.4796 41.2594 58.1851 41.3203 57.8288C41.4797 56.8022 41.7469 55.8015 42.1008 54.8265L42.3703 54.1796L41.9789 53.9476C41.625 53.7272 41.332 53.4226 40.1719 52.0421C38.7445 50.3569 36.8649 49.4288 34.2024 49.1124C33.3352 49.028 32.4563 48.9647 31.5774 48.9296C27.6703 48.7468 25.4367 47.9288 23.4235 45.9507C21.9211 44.4741 21.1406 42.7515 20.8242 40.2132C20.3977 36.7819 19.9219 35.0241 19.043 33.5968C18.8227 33.2429 18.5789 32.9124 18.2977 32.6077L17.9438 32.2538L17.1633 32.7554C16.7367 33.0366 16.1367 33.3905 15.8438 33.5499C14.8664 34.0866 13.9383 34.6843 13.0477 35.3312C10.8633 36.9179 8.48205 38.9077 7.17658 40.2132C6.59064 40.7991 6.28595 41.0546 6.15002 41.0312C5.25939 40.8976 5.94142 37.0397 7.39455 34.1335C9.2508 30.3858 12.375 26.9312 15.9891 24.5991C18.9563 22.6819 23.7539 20.0452 25.9735 19.1171C29.9156 17.4694 35.018 15.6858 38.5102 14.7343C39.2438 14.5257 39.6938 14.3429 39.9985 14.1366C40.6828 13.6608 41.3531 13.4288 42.1219 13.4171C42.7688 13.4054 42.8297 13.3937 43.4531 12.9765C44.1867 12.5007 44.4047 12.4749 45.1383 12.7327L45.6141 12.9038L46.2 12.5007L46.786 12.1093L47.6274 12.121C48.2742 12.1327 48.5672 12.1093 48.8484 11.9874C49.2024 11.828 49.2141 11.8046 49.3125 11.2187C49.5328 9.94834 49.5563 9.31318 49.4227 8.54443C49.2516 7.53193 49.2281 3.60146 49.3992 2.83037C49.582 2.00068 49.7039 1.82959 50.3274 1.5249C51.2555 1.07256 51.9516 0.938965 53.55 0.938965C55.5024 0.938965 56.4914 1.2085 57.225 1.91631C57.8836 2.55146 57.9938 4.03975 57.6516 7.53193C57.443 9.54521 57.4195 10.1077 57.4805 11.4249C57.5039 12.2663 57.5649 13.0608 57.5906 13.171C57.6399 13.3796 57.6891 13.3913 58.3969 13.403C59.093 13.4147 59.2149 13.4522 59.8735 13.7944C60.5086 14.1249 60.9844 14.528 61.0828 14.821C61.0945 14.8819 61.2047 14.8819 61.3992 14.821C61.7766 14.7108 62.107 14.8327 62.3766 15.1632C62.536 15.3718 62.632 15.4069 63 15.4069C63.5016 15.4069 63.6844 15.5288 64.0992 16.1405C64.2938 16.4218 64.5633 16.628 64.868 16.764C65.5524 17.1062 66.4805 18.0577 66.8344 18.8147C67.3828 19.9374 67.493 21.2429 67.1508 22.4147C67.0289 22.8554 67.0289 22.8671 67.2844 23.2936C67.8211 24.2101 68.018 25.3327 67.7977 26.2843L67.6758 26.8468L68.0414 27.2124C69.8602 29.0312 69.5906 31.9983 67.3711 34.6468C67.1391 34.928 66.8578 35.3663 66.7477 35.6358C66.3211 36.7702 65.8313 37.5647 65.1985 38.2233L64.5516 38.8819H63.893C63.2344 38.8819 62.3063 38.6616 61.7438 38.3687C61.5117 38.2468 61.5 38.2468 61.5492 38.3921C61.6969 38.9288 62.0625 41.1132 62.1844 42.3226C62.3789 44.1788 62.318 46.8765 62.0625 48.0366C61.8797 48.8921 61.561 49.7218 61.1344 50.4905C60.8906 50.8819 60.8789 50.9663 60.9258 51.4421C60.9985 52.1124 60.8414 53.2374 60.5719 53.9804C60.2414 54.8476 60.1195 55.2507 60.0469 55.689C59.986 56.0663 59.986 56.0663 60.2555 56.0663C60.6094 56.0663 60.8039 56.2749 60.8039 56.6897C60.8039 56.8726 60.6445 57.8616 60.45 58.8741C59.9133 61.7194 59.8758 62.0358 59.8758 64.7944C59.8641 67.6397 59.8641 67.614 60.511 68.0405L61.9641 68.9804C63.2086 69.8101 64.5516 70.4944 65.9555 71.0312C67.9945 71.8374 68.2758 72.0436 68.2758 72.728C68.2758 73.0327 68.2149 73.1429 67.9594 73.3866C67.1789 74.1437 65.6391 74.3148 62.5383 73.9843C60.9258 73.8366 59.3039 73.7522 57.6914 73.7522C53.4188 73.6913 52.7953 73.5436 52.2352 72.4819C51.9188 71.8726 51.9797 71.078 52.418 69.7726C52.6125 69.1983 52.7836 68.6124 52.9313 68.0147C53.2242 66.5991 53.0297 64.914 52.3453 63.0108L51.7594 61.3866C51.1852 59.739 50.8688 56.7226 51.211 56.0405C51.2719 55.9069 51.382 55.8812 51.675 55.8929L52.0406 55.9304L52.3453 55.2952C52.5774 54.7937 52.8328 54.4655 53.5289 53.7694L54.4195 52.8788L54.3703 52.3046C54.3328 51.7562 53.6133 49.0937 53.5149 49.1054C53.4774 49.1054 53.2828 49.3749 53.0625 49.7147C52.5258 50.521 51.3422 51.7655 50.6695 52.2179C50.3766 52.4124 50.1328 52.6444 50.1328 52.7194C50.1211 53.0499 49.8399 53.6968 49.4977 54.1468C49.1672 54.5874 49.1438 54.6601 49.193 55.0491C49.2774 55.6233 49.0945 57.4655 48.8766 58.4311C48.682 59.139 48.4125 59.8351 48.0703 60.5054C47.2289 62.2515 46.5938 63.8124 46.4344 64.5343C46.3125 65.2304 46.2516 65.9382 46.2141 66.6343C46.1766 67.464 46.0922 68.2702 46.0313 68.4413C45.9469 68.6733 45.9469 68.8562 46.0195 69.2101C46.0805 69.4655 46.118 70.0397 46.1039 70.4921C46.0922 71.1155 46.1414 71.5186 46.3242 72.2499C46.6406 73.4944 46.7016 74.2772 46.5563 74.7413C46.4578 75.0343 46.3617 75.1444 46.0313 75.3038C45.2977 75.6812 43.2234 75.8897 42.1008 75.6952L42.1031 75.6999ZM45.068 74.6991C45.4945 74.5772 45.8625 74.2116 45.8625 73.8811C45.8625 73.7335 45.7406 73.3069 45.593 72.9296C45.3 72.2101 44.7985 70.3046 44.7985 69.9882C44.7985 69.8288 44.8102 69.8171 45.0539 69.9507L45.3235 70.0983V69.7561C45.2859 69.4397 45.2133 69.1327 45.1149 68.828C44.8828 68.1319 44.8594 68.1202 43.3805 68.0335L42.3797 67.9843L42.0141 68.3382C41.8195 68.5468 41.6367 68.7647 41.4891 69.0226C41.3297 69.339 41.2688 69.8171 41.3672 69.9249C41.3906 69.9624 41.6367 69.9249 41.9039 69.864C42.0633 69.8147 42.2203 69.7913 42.3914 69.7796C42.3914 69.7913 42.1219 70.0116 41.782 70.2437C40.3172 71.3429 39.8039 72.0132 39.8039 72.8687C39.8039 73.7593 40.6453 74.4554 41.9649 74.664C42.8672 74.7976 44.625 74.8351 45.0656 74.7015L45.068 74.6991ZM64.9289 73.246C65.2945 72.8054 65.2453 72.3554 64.7813 71.8421C64.5117 71.5726 64.207 71.3405 63.8649 71.1577C63.5227 70.9749 63.1805 70.7663 62.8383 70.5483C62.5688 70.3538 61.7156 69.8522 60.9328 69.4257C60.3703 69.121 59.8219 68.8022 59.2852 68.4624L59.0649 68.2913V64.9351C59.0649 61.628 59.0531 61.5788 58.882 61.628C58.0266 61.8601 56.611 61.9702 54.818 61.9327L52.8774 61.9093L53.1586 62.5937C53.6836 63.8874 53.9531 65.6218 53.9531 67.6116C53.9531 68.3569 53.9039 68.6241 53.7211 69.1491C53.6227 69.4046 53.5383 69.6624 53.4516 69.9179C53.4141 70.028 53.55 70.1124 54.0492 70.2601C54.4149 70.3702 54.9516 70.4804 55.2586 70.5155L55.8211 70.5765L55.7602 71.139C55.6992 71.7741 55.7719 72.4444 55.9313 72.653C56.0297 72.7749 56.3953 72.8241 58.0922 72.8968C59.3742 72.9577 60.7664 73.0913 61.8633 73.2507C62.8149 73.3983 63.8414 73.5202 64.1461 73.5202C64.6594 73.5319 64.7086 73.5085 64.9266 73.2507L64.9289 73.246ZM45.3867 67.5343C45.436 67.4968 45.5086 66.8382 45.5344 66.0577C45.6328 63.8733 45.7172 63.5546 46.8164 61.089C47.7188 59.0757 48.1969 57.196 48.1594 55.8647L48.136 55.0702L47.7938 55.4007C47.086 56.1085 47.5735 54.9976 48.4172 54.0085C49.0524 53.2515 49.2727 52.8366 49.3688 52.1663C49.418 51.8968 49.5164 51.7632 49.9313 51.4468C51.5063 50.2515 52.6406 48.7374 53.386 46.8811C53.557 46.4405 53.9953 44.9405 54.3633 43.5483C55.0477 40.9726 55.4133 39.8616 55.7438 39.3858C55.8656 39.203 55.9149 39.1655 55.8914 39.2874C55.6969 40.021 55.636 40.3257 55.4766 41.2772C55.3781 41.8749 55.1953 43.0468 55.0735 43.8647C54.8414 45.5382 54.5977 46.6116 54.2672 47.4413L54.0469 48.0038L54.6328 49.5179C55.2422 51.0671 55.5235 52.1921 55.5727 53.2772L55.6102 53.8866L55.1344 53.9851C54.4992 54.0952 53.9508 54.4491 53.5711 54.9624C53.1563 55.5601 52.9242 56.0499 53.0344 56.1577C53.0836 56.2069 53.6813 56.3171 54.3656 56.4015C55.4274 56.5233 55.8305 56.5233 57.2344 56.439C57.8438 56.4155 58.4438 56.3546 59.0414 56.2679C59.175 56.2187 59.311 55.9515 59.5289 55.2554C60.0305 53.6569 60.1266 53.0944 60.0656 51.9718L60.0164 50.9827L60.2719 50.6522C60.8695 49.8952 61.3336 48.5288 61.5281 46.928C61.7602 44.9757 61.3336 40.8858 60.5391 37.3702C60.1617 35.6968 60.0024 34.696 60.0024 33.9647V33.3179L59.4047 33.3788C57.2555 33.6108 54.6563 33.5499 53.0695 33.2194C52.2024 33.0483 50.018 32.4015 49.5422 32.1929L49.1649 32.0218L49.1156 32.4483C49.0781 32.6804 49.043 32.9124 48.9938 33.1562C48.9211 33.4116 48.9445 33.4726 49.3969 33.9132C49.9594 34.4874 50.1305 34.7804 50.1305 35.1694C50.1305 35.4132 49.9969 35.6101 49.3125 36.3179C48.811 36.8429 48.1781 37.4054 47.6883 37.7218L46.8938 38.2585L46.5516 39.4421C45.3305 43.7757 45.0985 47.7179 45.9047 50.5374L46.0992 51.2452L45.7078 51.7327C44.243 53.5749 43.3758 54.9788 43.2422 55.7616C43.2188 55.921 43.0945 56.4319 42.9727 56.9101C42.6563 58.1194 42.4102 59.889 42.3024 61.8062C42.2297 63.4046 42.1195 65.0171 41.986 66.6155L41.925 67.0913L42.5344 67.2741C42.8766 67.3843 43.3899 67.5062 43.6828 67.5554C44.2313 67.6397 45.2461 67.6163 45.4031 67.5319L45.3867 67.5343ZM57.2391 60.8194C58.1906 60.7585 59.0578 60.6108 59.2289 60.4655C59.3016 60.4163 59.3883 60.1608 59.4117 59.903L59.4727 59.439L58.7156 59.6101C58.118 59.7319 57.5203 59.8046 56.9203 59.8538C55.4789 59.9147 54.0281 59.8772 52.5984 59.7319C52.1227 59.6593 52.1227 59.6593 52.268 60.2804C52.3899 60.7444 52.4156 60.7679 53.6602 60.8546C54.4899 60.9272 55.65 60.9155 57.2367 60.8171L57.2391 60.8194ZM56.4445 58.696C57.6891 58.5858 59.2406 58.3187 59.5453 58.1593C59.6438 58.1101 59.7281 57.9272 59.7656 57.7187L59.8758 57.0718L59.9367 56.7671L59.632 56.828C58.2774 57.1093 57.2508 57.1936 55.2 57.1936C53.1985 57.1936 52.9664 57.1819 52.4414 56.9991C52.2469 56.9147 52.0266 56.8655 51.8063 56.8515C51.7219 56.9007 51.7078 57.5968 51.7828 58.0843C51.832 58.3772 51.8813 58.4265 52.1742 58.5108C53.1024 58.7663 54.6656 58.8272 56.4469 58.6819L56.4445 58.696ZM33.7899 47.6851C36.9141 46.7827 41.0039 44.1319 44.3485 40.8132C45.436 39.7257 45.5695 39.5804 45.7149 39.0929L45.9094 38.4694C45.9328 38.4202 45.7383 38.3358 45.4828 38.2749C44.8125 38.1155 44.2992 37.7265 44.2992 37.3726C44.2992 37.164 44.1774 36.9577 43.8235 36.578C43.2492 35.9312 43.1039 35.6499 43.043 35.0288L42.9938 34.5272L42.3094 34.0397C41.918 33.7585 40.5516 33.0015 39.0984 32.2702C37.9992 31.7335 36.9141 31.1476 35.8524 30.5124C34.6313 29.6944 33.8133 28.7171 33.3492 27.5593C33.2649 27.3272 33.1547 27.1327 33.1172 27.1327C33.0188 27.1327 30.2719 29.7812 29.1 31.0257C26.2078 34.0772 24.218 36.7257 22.9594 39.1796C22.643 39.789 22.3008 40.5108 22.2024 40.778L22.0195 41.2655L22.2399 42.0835C22.3735 42.5241 22.6547 43.2437 22.875 43.6702C23.6438 45.1843 24.5602 46.0983 26.0742 46.8437C27.6985 47.6499 29.1375 47.9312 31.5422 47.8937C32.836 47.8819 33.2156 47.8444 33.7875 47.6733L33.7899 47.6851ZM9.13127 36.9788C11.182 35.1601 14.0133 33.1702 17.482 31.1077C19.7531 29.753 28.5305 25.3585 32.5711 23.5632C33.3047 23.2327 33.9633 22.928 34.036 22.8929C34.1086 22.8437 34.3172 22.3187 34.5117 21.7327C35.3672 19.0233 35.7938 18.4866 37.343 18.1327C37.5375 18.0835 37.5867 18.0226 37.5867 17.828C37.5867 17.4741 37.8305 16.6562 38.0391 16.2905C38.1985 16.0093 38.1985 15.9976 38.0625 16.0351C37.9781 16.0585 37.4649 16.2062 36.9281 16.3655C29.482 18.5147 22.9758 21.3694 17.3602 24.9343C11.3672 28.7429 7.91251 33.3085 6.91173 38.7765L6.83908 39.1796L7.57267 38.4601C7.96408 38.0569 8.67189 37.3983 9.13595 36.9952L9.13127 36.9788ZM64.3688 38.0171C64.9664 37.7124 65.8945 36.3085 66.2367 35.1976C66.3352 34.8062 66.5297 34.4405 66.811 34.1358C67.7133 33.1351 68.4586 31.3163 68.4703 30.0718C68.4703 28.1312 67.3711 27.3858 65.7727 28.2155C65.5641 28.314 65.3953 28.3866 65.3695 28.3632C65.2852 28.2788 65.7352 27.8382 66.2859 27.496C67.0055 27.0202 67.1414 26.739 67.1414 25.7265C67.1414 24.871 66.9328 24.189 66.4453 23.4319C66.225 23.1015 66.1406 22.8835 66.1758 22.7476L66.3961 21.9296C66.7008 20.8421 66.5906 19.5976 66.1149 18.8054C65.407 17.6101 64.5399 17.0241 63.3305 16.9257L62.6227 16.8765L63.0375 17.3405C64.2703 18.6718 64.868 20.3429 64.6242 21.7726C64.5024 22.5062 64.3922 22.6515 63.6844 22.9327L63.2695 23.1038L63.3188 23.6663C63.4031 24.5827 63.2461 25.253 62.6602 26.4858C62.3672 27.1093 62.1469 27.6694 62.1727 27.7304C62.2453 27.939 63.0516 28.328 63.6867 28.4874L64.3102 28.6351L63.9188 28.7687C63.4055 28.928 63.2953 29.1601 63.2953 30.0015C63.2953 30.7702 63.4055 31.089 63.9656 31.9304C64.2211 32.296 64.3922 32.6757 64.418 32.8937C64.4672 33.2358 64.4555 33.2593 64.1742 33.3577C63.8578 33.4421 63.5274 33.5054 63.1969 33.5171C62.0485 33.5897 61.9641 33.6272 61.4508 34.1147C60.9867 34.5554 60.975 34.5788 60.975 35.0663C60.975 35.7366 61.2305 37.0937 61.3899 37.2765C61.5985 37.4968 62.7563 38.071 63.2086 38.1554C63.6 38.2538 64.0149 38.2046 64.3688 38.0218V38.0171ZM47.461 37.103C48.2063 36.5171 48.7922 35.9312 49.1203 35.4296C49.3289 35.1249 49.3406 35.064 49.2422 34.8062C49.0711 34.4147 47.9485 33.4022 47.325 33.0976C46.9102 32.9147 46.4695 32.7812 46.0195 32.7202L45.2508 32.6218L44.775 32.0241C43.786 30.803 43.2375 29.8515 42.4547 28.0069C41.7703 26.4437 41.1727 25.5296 40.2211 24.6249C39.8297 24.2593 39.5508 23.9546 39.5742 23.9546C39.6235 23.9546 40.0875 24.1866 40.6242 24.4679C41.5149 24.9437 41.625 24.9812 42.0281 24.9202C43.4813 24.7491 44.7633 23.078 45.2274 20.7343C45.361 20.0757 45.6305 19.403 45.9117 18.9999C45.9235 18.9882 46.486 19.3538 47.1445 19.8296C48.818 21.0132 49.1836 21.196 50.1352 21.2335C50.7586 21.2569 51.1125 21.2101 52.2352 20.9405C54.6281 20.3546 57.2156 20.1226 58.7906 20.3312C59.6813 20.453 60.9633 20.8444 61.9149 21.2944C62.8547 21.7351 63.0375 21.7585 63.3422 21.489C63.5977 21.2687 63.5977 21.2335 63.5977 20.4155C63.586 19.2062 63.1453 17.9007 62.475 17.1202C62.1328 16.7171 61.1695 16.0585 60.2156 15.5569C59.8735 15.3741 59.5313 15.1913 59.2031 15.0085C58.7508 14.739 58.2399 14.7765 56.8477 15.1421C55.2352 15.5569 54.8086 15.5569 52.9664 15.0812C51.4031 14.6897 51.307 14.678 49.7672 14.9218C48.9492 15.0437 46.8985 14.971 46.2141 14.7882C45.8719 14.6897 45.5297 14.5937 45.2016 14.4718C44.6039 14.2397 43.5656 14.2022 42.6258 14.3733C40.7578 14.7038 39.3422 15.7163 38.8289 17.0944C38.5594 17.7905 38.5969 18.121 38.9508 18.339C39.5133 18.6929 40.2563 19.6585 40.2563 20.0358C40.2563 20.0593 40.0735 19.9022 39.8649 19.6819C39.3399 19.1335 38.8641 18.8874 38.3016 18.8874C37.5563 18.9108 36.886 19.3515 36.5813 20.0218C36.4219 20.4483 36.2766 20.889 36.1664 21.3413C35.8242 22.5858 35.5195 23.2468 34.8727 24.1257C34.2985 24.9202 34.2141 25.2741 34.4203 26.1647C34.9336 28.4101 35.8242 29.3147 39.5461 31.4265C41.4985 32.5374 42.4992 33.1608 43.2328 33.7093C43.7953 34.1241 43.807 34.1499 43.7578 34.4663C43.6477 35.1999 44.1117 35.9921 45.0281 36.639C45.2602 36.7983 45.4055 36.9694 45.4055 37.0913C45.4055 37.3116 46.0289 37.6163 46.4789 37.6163C46.7344 37.6163 46.9313 37.5061 47.4563 37.103H47.461ZM62.5125 32.9874C63.9281 33.0366 64.0008 32.9265 63.2461 32.0476C62.4516 31.1312 62.2336 30.3882 62.5266 29.5702L62.6485 29.2538L62.1469 29.0101C61.9758 28.9257 61.8047 28.839 61.6336 28.778C61.5492 29.1085 61.4625 29.4249 61.3899 29.7554C61.207 30.5007 60.9867 32.4296 60.975 33.2476C60.975 33.3202 61.0969 33.2968 61.3055 33.1632C61.5984 32.9921 61.7461 32.9687 62.5149 32.9921L62.5125 32.9874ZM57.7641 32.9147C58.6195 32.8655 59.4985 32.8046 59.7305 32.7671L60.157 32.7062L60.2063 31.3022C60.2789 29.3007 60.5719 28.1171 61.4391 26.2233C62.0485 24.8804 62.318 23.7085 62.1844 22.8296C62.1352 22.4522 62.1117 22.4265 61.5984 22.2062C60.6586 21.8288 59.6813 21.571 58.6805 21.4116C57.7172 21.278 54.8836 21.3507 53.8219 21.5593C53.3813 21.6319 52.5774 21.803 52.0406 21.9366C50.7094 22.2413 50.0016 22.2062 48.9891 21.7655C47.9883 21.3249 47.3531 20.9241 46.7555 20.3616C46.2797 19.921 46.2305 19.8976 46.1086 20.0452C46.0102 20.1554 45.9609 20.4858 45.9258 21.1937C45.8883 22.2812 45.7172 22.853 45.2414 23.6218C45.1313 23.7812 45.0469 23.9522 44.9719 24.1233C44.9719 24.1608 45.3375 24.5874 45.7899 25.0515C47.3531 26.6757 48.1219 27.0905 49.3547 27.0038C49.7578 26.9663 50.0391 26.9804 50.0391 27.0272C50.0391 27.1257 49.2445 27.7468 48.9164 27.9179C48.757 28.0022 48.7219 28.089 48.7453 28.2718L48.9399 29.5538C49.05 30.2874 49.1344 30.6272 49.2445 30.7257C49.5375 30.9694 51.0516 31.7522 52.0031 32.1413C53.2477 32.6429 53.932 32.8257 54.8836 32.9101C56.0555 33.0085 56.0789 33.0085 57.7641 32.9101V32.9147ZM47.6695 31.5718C47.693 31.5343 47.6086 30.8265 47.4492 30.0085C47.2547 28.8976 47.1445 28.4944 47.0227 28.3843C46.9383 28.3116 46.486 27.9929 46.0336 27.6647C45.436 27.2382 44.8735 26.7624 44.3485 26.2608L43.507 25.4312L43.0547 25.6632L42.5789 25.9187C42.6164 26.1132 42.6891 26.296 42.7735 26.4671C42.907 26.7601 43.1766 27.4796 43.3711 28.0655C43.8844 29.5913 44.2875 30.3249 45.3 31.6538L45.6774 32.1554L46.3969 32.2655C46.8 32.3265 47.2031 32.4132 47.3133 32.4483C47.4844 32.521 47.5078 32.4858 47.557 32.0944C47.5805 31.9233 47.618 31.7405 47.6672 31.5694L47.6695 31.5718ZM63.136 16.3866C63.7594 16.3257 63.8695 16.239 63.6 15.9601C63.4289 15.789 63.0375 15.7772 62.7211 15.9226C62.5125 16.021 62.4656 15.9952 62.1352 15.6413C61.793 15.264 61.7695 15.2499 61.3406 15.2991C60.9492 15.3483 60.8883 15.3366 60.8391 15.1772C60.6797 14.9077 60.4969 14.6757 60.2766 14.4694C59.9953 14.153 59.6531 13.9069 59.2641 13.7499C58.507 13.4569 58.0805 13.4944 57.3586 13.8976C55.2703 15.0319 55.357 15.0202 53.3414 14.5069C51.4617 14.0312 50.0578 13.5437 49.6055 13.2366C49.2281 12.9812 48.4219 12.6999 47.7492 12.6132C47.2477 12.5405 46.9313 12.6507 46.4555 13.0397L46.2 13.2483L46.432 13.6515C46.7485 14.214 46.7133 14.2491 46.2375 13.8343C45.7242 13.4077 45.1149 13.1147 44.7235 13.1007C44.4422 13.1007 43.6125 13.4663 43.5141 13.6257C43.4766 13.6749 43.7344 13.7358 44.0766 13.7593C44.4305 13.7968 44.918 13.9187 45.2485 14.0522C46.1039 14.4179 46.5422 14.5397 47.3227 14.6147C48.1781 14.6991 49.7274 14.603 49.9102 14.4554C50.0086 14.371 50.2758 14.3569 50.8383 14.4062C51.5836 14.4554 51.8883 14.528 53.6578 15.0038C54.6844 15.2851 55.4039 15.2593 56.625 14.9312C57.1875 14.7718 57.8953 14.6147 58.1883 14.5772C58.6899 14.528 58.786 14.5538 59.5688 14.9077C60.8133 15.4702 61.4742 15.8241 61.8399 16.1522C62.2055 16.4687 62.2547 16.4687 63.1336 16.396L63.136 16.3866ZM56.1774 14.2515L56.9227 13.8601L56.8992 13.103C56.8875 12.578 56.8617 12.0647 56.8383 11.5538L56.7774 10.7733L56.032 11.3476C55.5914 11.6897 55.1649 11.9452 54.982 11.9827C54.4453 12.0812 51.7969 11.9827 51.5508 11.8491C51.2203 11.6054 50.9156 11.3358 50.6344 11.0429L49.95 10.3468L49.9383 10.7616C49.9383 10.9819 49.9149 11.3593 49.8656 11.5913C49.8047 12.0319 49.8047 12.0437 50.2805 12.6413C50.5359 12.9718 50.7445 13.2647 50.7445 13.2999C50.7445 13.5319 54.2719 14.6312 55.0664 14.6429C55.3219 14.6429 55.6406 14.5327 56.1774 14.2515ZM54.7617 11.4788C55.6406 11.3077 56.0672 10.6726 56.3977 9.0624C56.7399 7.32803 56.911 4.60693 56.7516 3.44678C56.6039 2.39678 55.432 1.93271 53.1985 2.00537C51.8063 2.05459 51.232 2.18818 50.7563 2.59131C50.4633 2.83506 50.4633 2.86084 50.3297 4.01865C50.086 6.24053 50.4516 9.40225 51.0867 10.5858C51.3914 11.1601 51.661 11.3663 52.2211 11.4647C52.8563 11.5749 54.211 11.5749 54.7594 11.4765L54.7617 11.4788Z" fill="black"/>
</g>
<defs>
<clipPath id="clip0_196_177">
<rect width="75" height="75" fill="white" transform="translate(0 0.859375)"/>
</clipPath>
</defs>
</svg>
