<svg width="67" height="76" viewBox="0 0 67 76" fill="none" xmlns="http://www.w3.org/2000/svg">
<path d="M66.082 1.90955C65.4873 1.24594 64.639 0.867188 63.75 0.867188H3.13022C2.24124 0.867188 1.39295 1.24594 0.79821 1.90955C0.203469 2.57316 -0.0782507 3.45901 0.018786 4.34173L6.91152 66.392C7.04925 67.6535 7.94136 68.7084 9.16215 69.0558L32.5762 75.7451C32.8579 75.8265 33.149 75.8672 33.437 75.8672C33.725 75.8672 34.0161 75.8265 34.2978 75.7451L57.7118 69.0558C58.9326 68.7084 59.8216 67.6535 59.9624 66.392L66.8583 4.34173C66.9585 3.45901 66.6768 2.57316 66.082 1.90955ZM51.0601 24.1247H23.1073L23.7709 32.0817H50.3871L48.39 55.5896L33.4495 60.3413L33.3024 60.2944L18.5278 55.5834L17.7202 46.0049H24.9572L25.2734 49.7267L33.5278 51.5454L41.6381 49.7236L42.499 39.6662H17.1755L15.216 16.5183H51.7112L51.0601 24.1247Z" fill="black"/>
</svg>
