<svg width="75" height="76" viewBox="0 0 75 76" fill="none" xmlns="http://www.w3.org/2000/svg">
<g clip-path="url(#clip0_196_175)">
<path d="M37.2888 0.859321C36.8854 0.877323 36.502 1.04017 36.209 1.318C32.9649 4.7251 31.0582 9.18772 30.8386 13.8871C31.0558 18.5889 32.9628 23.0543 36.209 26.4625L37.6392 27.8959L39.8084 30.0524L48.1028 38.3468L39.8084 46.6444L41.1016 47.9377C44.9683 51.9491 47.2206 57.2451 47.4275 62.8129C47.4232 64.2033 47.264 65.589 46.9529 66.9442L72.0879 41.8092C73.0052 40.8917 73.5206 39.6474 73.5206 38.35C73.5206 37.0526 73.0052 35.8083 72.0879 34.8908L38.512 1.318C38.3491 1.16366 38.1569 1.04354 37.9469 0.96476C37.7368 0.885976 37.513 0.850123 37.2888 0.859321ZM28.0483 9.75579L2.91335 34.8908C1.99604 35.8083 1.48071 37.0526 1.48071 38.35C1.48071 39.6474 1.99604 40.8917 2.91335 41.8092L36.4861 75.3884C36.792 75.6941 37.2067 75.8659 37.6392 75.8659C38.0717 75.8659 38.4864 75.6941 38.7923 75.3884C42.0371 71.9817 43.9439 67.5188 44.1626 62.8193C43.9431 58.1199 42.0363 53.6573 38.7923 50.2502L26.8985 38.35L35.1929 30.0524L33.8997 28.7591C30.0337 24.7488 27.7824 19.4536 27.5769 13.8871C27.5801 12.4968 27.7383 11.1111 28.0483 9.75579Z" fill="black"/>
</g>
<defs>
<clipPath id="clip0_196_175">
<rect width="75" height="75" fill="white" transform="translate(0 0.859375)"/>
</clipPath>
</defs>
</svg>
