<svg width="76" height="76" viewBox="0 0 76 76" fill="none" xmlns="http://www.w3.org/2000/svg">
<path d="M70.9991 0.867188H5.52058C2.89084 0.867188 0.756348 3.00168 0.756348 5.63142V71.103C0.756348 73.7327 2.89084 75.8672 5.52058 75.8672H70.9921C73.6219 75.8672 75.7563 73.7327 75.7563 71.1099V5.63142C75.7563 3.00168 73.6219 0.867188 70.9991 0.867188ZM41.8278 58.3379C41.8278 65.4738 37.6425 68.7243 31.532 68.7243C26.0075 68.7243 22.0245 65.0204 20.3992 61.5815L26.0144 58.1844C27.0956 60.1027 28.7418 61.5815 31.1135 61.5815C33.3805 61.5815 34.6849 60.6956 34.6849 57.2497V34.7958H41.8278V58.3379ZM57.3202 68.7243C50.9935 68.7243 47.4012 65.5366 45.3992 61.5815L50.7563 58.01C52.2142 60.3956 53.8046 62.6766 57.1668 62.6766C59.9918 62.6766 61.4706 61.2676 61.4706 59.3145C61.4706 56.9847 59.936 56.1546 56.832 54.7944L55.13 54.0619C50.2123 51.9693 46.9408 49.3465 46.9408 43.7941C46.9408 38.6881 50.8401 34.7958 56.9226 34.7958C61.2544 34.7958 64.3654 36.3025 66.6115 40.2506L61.3102 43.6616C60.1383 41.5619 58.8827 40.7388 56.9226 40.7388C54.9277 40.7388 53.6651 42.0084 53.6651 43.6616C53.6651 45.7054 54.9277 46.5285 57.8504 47.798L59.5524 48.5304C65.349 51.0067 68.6135 53.5388 68.6135 59.2307C68.6135 65.3622 63.7935 68.7243 57.3202 68.7243Z" fill="black"/>
</svg>
