<svg width="76" height="76" viewBox="0 0 76 76" fill="none" xmlns="http://www.w3.org/2000/svg">
<g clip-path="url(#clip0_207_35)">
<mask id="mask0_207_35" style="mask-type:luminance" maskUnits="userSpaceOnUse" x="0" y="0" width="76" height="76">
<path d="M75.7563 0.867188H0.756348V75.8672H75.7563V0.867188Z" fill="white"/>
</mask>
<g mask="url(#mask0_207_35)">
<path d="M35.8004 0.887373C35.6392 0.902036 35.1257 0.953356 34.6638 0.990012C24.0115 1.95042 14.0335 7.69822 7.71382 16.5325C4.19475 21.4446 1.94403 27.0164 1.09359 32.9181C0.793005 34.9784 0.756348 35.5869 0.756348 38.38C0.756348 41.1734 0.793005 41.7819 1.09359 43.8419C3.13171 57.9256 13.1537 69.7584 26.7461 74.1425C29.1801 74.9269 31.7461 75.4622 34.6638 75.7847C35.8004 75.9094 40.7123 75.9094 41.8488 75.7847C46.8854 75.2275 51.1523 73.9812 55.3604 71.8331C56.0057 71.5031 56.1301 71.4153 56.0423 71.3419C55.9835 71.2978 53.2345 67.6103 49.9351 63.1528L43.9382 55.0516L36.4235 43.93C32.2885 37.8156 28.8868 32.8156 28.8575 32.8156C28.8282 32.8081 28.7989 37.7497 28.7842 43.7831C28.7622 54.3478 28.7549 54.7731 28.6229 55.0222C28.4323 55.3816 28.2857 55.5281 27.9778 55.6894C27.7432 55.8069 27.5379 55.8287 26.4308 55.8287H25.1625L24.8253 55.6162C24.6053 55.4769 24.444 55.2934 24.3341 55.0809L24.1801 54.7509L24.1948 40.0516L24.2168 25.3448L24.444 25.0589C24.5613 24.905 24.8106 24.707 24.9866 24.6117C25.2871 24.4651 25.4044 24.4504 26.6728 24.4504C28.1684 24.4504 28.4176 24.5091 28.8062 24.9343C28.9162 25.0516 32.9851 31.1806 37.8532 38.5634C42.721 45.9459 49.3779 56.0266 52.6479 60.9753L58.5863 69.9709L58.887 69.7731C61.5482 68.0428 64.3635 65.5794 66.592 63.0134C71.3354 57.5662 74.3926 50.9241 75.4192 43.8419C75.7198 41.7819 75.7563 41.1734 75.7563 38.38C75.7563 35.5869 75.7198 34.9784 75.4192 32.9181C73.381 18.8346 63.3588 7.00175 49.7667 2.61758C47.3692 1.84045 44.8179 1.30526 41.9588 0.982681C41.2548 0.909367 36.4088 0.828722 35.8004 0.887373ZM51.1523 23.5707C51.5042 23.7466 51.7901 24.0838 51.8926 24.4357C51.9513 24.6264 51.966 28.7026 51.9513 37.8887L51.9295 51.0706L49.6054 47.5075L47.2738 43.9447V34.3625C47.2738 28.1674 47.3032 24.685 47.3473 24.5164C47.4645 24.1058 47.721 23.7833 48.0729 23.5927C48.3735 23.4387 48.4835 23.424 49.6348 23.424C50.7198 23.424 50.9104 23.4387 51.1523 23.5707Z" fill="black"/>
</g>
</g>
<defs>
<clipPath id="clip0_207_35">
<rect width="75" height="75" fill="white" transform="translate(0.756348 0.867188)"/>
</clipPath>
</defs>
</svg>
