<svg width="76" height="76" viewBox="0 0 76 76" fill="none" xmlns="http://www.w3.org/2000/svg">
<path fill-rule="evenodd" clip-rule="evenodd" d="M11.7563 0.867188C5.68122 0.867188 0.756348 5.79205 0.756348 11.8672V64.8672C0.756348 70.9423 5.68121 75.8672 11.7563 75.8672H64.7563C70.8315 75.8672 75.7563 70.9423 75.7563 64.8672V11.8672C75.7563 5.79206 70.8315 0.867188 64.7563 0.867188H11.7563ZM21.0177 30.8217V45.3672H22.7791V39.6854H25.9609C26.0869 39.6854 26.2104 39.683 26.3314 39.6784L29.3984 45.3672H31.4438L28.1581 39.3693C28.3639 39.2993 28.5571 39.2176 28.7379 39.1243C29.4623 38.7455 29.9997 38.2247 30.3501 37.5618C30.7005 36.8989 30.8757 36.139 30.8757 35.282C30.8757 34.425 30.7005 33.6603 30.3501 32.9879C29.9997 32.3156 29.4599 31.7876 28.7308 31.4041C28.0016 31.0159 27.0688 30.8217 25.9325 30.8217H21.0177ZM22.7791 38.0945H25.9041C26.6806 38.0945 27.3056 37.9808 27.7791 37.7536C28.2573 37.5263 28.6029 37.2043 28.816 36.7876C29.0338 36.3662 29.1427 35.8643 29.1427 35.282C29.1427 34.6996 29.0338 34.1906 28.816 33.755C28.5982 33.3194 28.2502 32.9832 27.772 32.7464C27.2938 32.505 26.6617 32.3842 25.8757 32.3842H22.7791V38.0945ZM35.9627 45.0831C36.6966 45.4051 37.5323 45.5661 38.4698 45.5661C39.412 45.5661 40.2524 45.3861 40.9911 45.0263C41.7297 44.6664 42.3121 44.174 42.7382 43.549C43.1691 42.9193 43.3845 42.209 43.3845 41.4183C43.3845 40.495 43.1265 39.7209 42.6104 39.0959C42.0943 38.4661 41.377 38.0755 40.4584 37.924V37.8104C41.1923 37.5878 41.7723 37.1877 42.1985 36.6101C42.6293 36.0324 42.8448 35.334 42.8448 34.5149C42.8448 33.8284 42.6719 33.1892 42.3263 32.5973C41.9807 32.0054 41.4859 31.5296 40.8419 31.1697C40.198 30.8052 39.4262 30.6229 38.5266 30.6229C37.6885 30.6229 36.9191 30.7839 36.2183 31.1058C35.5223 31.4278 34.9589 31.8776 34.528 32.4553C34.0971 33.0282 33.8675 33.6958 33.8391 34.4581H35.5436C35.5673 33.9751 35.7188 33.5632 35.9982 33.2223C36.2775 32.8767 36.6374 32.6139 37.0777 32.4339C37.5228 32.2493 37.9963 32.157 38.4982 32.157C39.0332 32.157 39.4972 32.2588 39.8902 32.4624C40.288 32.666 40.5957 32.95 40.8135 33.3146C41.0313 33.6792 41.1402 34.1077 41.1402 34.6001C41.1402 35.1115 41.0148 35.5566 40.7638 35.9354C40.5176 36.3142 40.1743 36.6077 39.734 36.8161C39.2984 37.0244 38.7917 37.1286 38.2141 37.1286H37.0493V38.6911H38.2141C38.9527 38.6911 39.5777 38.8071 40.0891 39.0391C40.6005 39.2711 40.9887 39.593 41.2539 40.005C41.519 40.4122 41.6516 40.8833 41.6516 41.4183C41.6516 41.9297 41.5143 42.3795 41.2397 42.7678C40.965 43.156 40.5863 43.459 40.1033 43.6768C39.6203 43.8946 39.0664 44.0036 38.4414 44.0036C37.8826 44.0036 37.3737 43.9112 36.9144 43.7266C36.4551 43.5419 36.0834 43.2815 35.7993 42.9453C35.5152 42.6044 35.3542 42.1996 35.3164 41.7308H33.5266C33.5645 42.4931 33.7965 43.1631 34.2226 43.7408C34.6535 44.3137 35.2335 44.7611 35.9627 45.0831ZM55.2666 30.8217H46.5451V45.3672H48.3064V38.8615H54.6132V37.299H48.3064V32.3842H55.2666V30.8217Z" fill="black"/>
</svg>
