<svg width="76" height="76" viewBox="0 0 76 76" fill="none" xmlns="http://www.w3.org/2000/svg">
<g clip-path="url(#clip0_207_41)">
<path d="M11.4706 0.867188H65.0421C70.9349 0.867188 75.7563 5.68862 75.7563 11.5815V65.1529C75.7563 71.0458 70.9349 75.8672 65.0421 75.8672H11.4706C5.57778 75.8672 0.756348 71.0458 0.756348 65.1529V11.5815C0.756348 5.68862 5.57778 0.867188 11.4706 0.867188Z" fill="black"/>
<path d="M65.2095 38.3672C65.2095 34.6172 60.7563 31.5703 54.1938 29.4609C55.8345 22.6641 55.1313 17.2734 52.0845 15.6328C51.147 15.1641 50.4438 14.9297 49.5063 14.9297C46.4595 14.9297 42.7095 17.0391 38.9595 20.7891C34.9751 17.0391 31.2251 14.9297 28.1782 14.9297C27.2407 14.9297 26.3032 15.1641 25.6001 15.6328C22.5532 17.2734 21.8501 22.6641 23.4907 29.4609C16.9282 31.5703 12.4751 34.6172 12.4751 38.3672C12.4751 42.1172 16.9282 45.1641 23.4907 47.2734C21.8501 54.0703 22.3188 59.4609 25.6001 61.3359C26.3032 61.8047 27.2407 62.0391 28.1782 62.0391C31.2251 62.0391 34.9751 59.9297 38.7251 56.1797C42.4751 59.9297 46.4595 62.0391 49.272 62.0391C50.2095 62.0391 51.147 61.8047 51.8501 61.3359C54.897 59.4609 55.6001 54.0703 53.9595 47.2734C60.7564 45.1641 65.2095 41.8828 65.2095 38.3672ZM49.5063 17.5078C49.9751 17.5078 50.4438 17.5078 50.6782 17.7422C52.0845 18.6797 52.7876 21.7266 52.3188 25.7109C52.0845 26.6484 52.0845 27.8203 51.8501 28.7578C49.7407 28.2891 47.397 27.8203 45.0532 27.5859C43.647 25.7109 42.2407 23.8359 40.8345 22.4297C44.1157 19.1484 47.397 17.5078 49.5063 17.5078ZM45.9907 42.5859C45.2876 43.9922 44.3501 45.1641 43.647 46.5703C42.0063 46.5703 40.6001 46.8047 38.9595 46.8047C37.3188 46.8047 35.6782 46.8047 34.272 46.5703C33.3345 45.3984 32.6313 43.9922 31.9282 42.5859C31.2251 41.1797 30.522 39.7734 29.8188 38.3672C30.522 36.9609 31.2251 35.5547 31.9282 34.1484C32.6313 32.7422 33.5688 31.3359 34.5063 30.1641C35.9126 30.1641 37.5532 29.9297 39.1938 29.9297C40.8345 29.9297 42.2407 29.9297 43.8813 30.1641C44.8188 31.3359 45.522 32.7422 46.4595 34.1484C47.1626 35.5547 47.8657 36.9609 48.5688 38.3672C47.6313 39.7734 46.6938 41.1797 45.9907 42.5859ZM49.5063 41.4141C49.9751 42.8203 50.4438 43.9922 50.9126 45.3984C49.5063 45.6328 48.1001 45.8672 46.6938 46.1016C47.1626 45.3984 47.6313 44.6953 48.1001 43.7578C48.5688 43.0547 49.0376 42.1172 49.5063 41.4141ZM38.7251 52.4297C37.7876 51.4922 36.8501 50.3203 35.9126 49.1484C36.8501 49.1484 37.7876 49.1484 38.7251 49.1484C39.6626 49.1484 40.6001 49.1484 41.5376 49.1484C40.6001 50.3203 39.6626 51.4922 38.7251 52.4297ZM30.7563 46.1016C29.3501 45.8672 27.9438 45.6328 26.5376 45.3984C27.0063 43.9922 27.4751 42.8203 27.9438 41.4141C28.4126 42.1172 28.8813 43.0547 29.3501 43.7578C29.8188 44.6953 30.2876 45.3984 30.7563 46.1016ZM28.1782 35.3203C27.7095 33.9141 27.2407 32.5078 26.772 31.3359C28.1782 31.1016 29.5845 30.8672 30.9907 30.6328C30.522 31.3359 30.0532 32.2734 29.5845 32.9766C28.8813 33.6797 28.4126 34.6172 28.1782 35.3203ZM38.7251 24.3047C39.6626 25.2422 40.6001 26.4141 41.5376 27.5859C40.6001 27.5859 39.6626 27.5859 38.7251 27.5859C37.7876 27.5859 36.8501 27.5859 35.9126 27.5859C36.8501 26.4141 37.7876 25.2422 38.7251 24.3047ZM48.1001 32.9766C47.6313 32.0391 47.1626 31.3359 46.6938 30.6328C48.1001 30.8672 49.5063 31.1016 50.9126 31.3359C50.4438 32.7422 49.9751 34.1484 49.5063 35.3203C49.0376 34.6172 48.5688 33.6797 48.1001 32.9766ZM25.3657 25.7109C24.897 21.7266 25.3657 18.6797 27.0063 17.7422C27.2407 17.5078 27.7095 17.5078 28.1782 17.5078C30.2876 17.5078 33.5688 19.1484 37.0845 22.6641C35.6782 24.3047 34.272 25.9453 32.8657 27.8203C30.522 28.0547 28.1782 28.5234 26.0688 28.9922C25.6001 27.8203 25.3657 26.6484 25.3657 25.7109ZM21.147 43.5234C17.397 41.8828 15.0532 40.0078 15.0532 38.1328C15.0532 36.4922 17.397 34.3828 21.147 32.7422C22.0845 32.2734 23.022 32.0391 24.1938 31.8047C24.897 33.9141 25.6001 36.0234 26.5376 38.1328C25.6001 40.2422 24.6626 42.3516 24.1938 44.4609C23.022 44.4609 22.0845 43.9922 21.147 43.5234ZM27.0063 58.9922C25.6001 58.0547 24.897 55.0078 25.3657 51.0234C25.6001 50.0859 25.6001 48.9141 26.0688 47.7422C28.1782 48.2109 30.2876 48.6797 32.6313 48.9141C34.0376 50.7891 35.4438 52.6641 37.0845 54.3047C33.5688 57.5859 30.2876 59.4609 28.1782 59.4609C27.7095 59.2266 27.2407 59.2266 27.0063 58.9922ZM52.3188 51.0234C52.7876 55.0078 52.3188 58.0547 50.6782 58.9922C50.4438 59.2266 49.9751 59.2266 49.5063 59.2266C47.397 59.2266 44.1157 57.5859 40.6001 54.0703C42.0063 52.4297 43.647 50.7891 45.0532 48.6797C47.397 48.4453 49.7407 48.2109 51.6157 47.5078C51.8501 48.9141 52.0845 50.0859 52.3188 51.0234ZM56.5376 43.5234C55.6001 43.9922 54.6626 44.2266 53.4907 44.6953C52.7876 42.5859 52.0845 40.4766 51.147 38.3672C52.0845 36.2578 53.022 33.9141 53.4907 32.0391C54.6626 32.2734 55.6001 32.7422 56.5376 32.9766C60.2876 34.6172 62.6313 36.4922 62.6313 38.3672C62.6313 40.0078 60.2876 42.1172 56.5376 43.5234Z" fill="white"/>
<path d="M38.9595 43.2891C41.772 43.2891 43.8813 41.1797 43.8813 38.3672C43.8813 35.5547 41.772 33.4453 38.9595 33.4453C36.147 33.4453 34.0376 35.5547 34.0376 38.3672C34.0376 41.1797 36.147 43.2891 38.9595 43.2891Z" fill="white"/>
</g>
<defs>
<clipPath id="clip0_207_41">
<rect width="75" height="75" fill="white" transform="translate(0.756348 0.867188)"/>
</clipPath>
</defs>
</svg>
