<svg width="30" height="24" viewBox="0 0 30 24" fill="none" xmlns="http://www.w3.org/2000/svg">
<path d="M-0.00390625 15.3877H29.9961V19.8104C29.9961 21.7791 28.4001 23.375 26.4315 23.375H3.56071C1.59203 23.375 -0.00390625 21.7791 -0.00390625 19.8104V15.3877Z" fill="black" fill-opacity="0.3"/>
<path d="M-0.00390625 8.40332H29.9961V15.3879H-0.00390625V8.40332Z" fill="white" fill-opacity="0.6"/>
<path d="M-0.00390625 4.18863C-0.00390625 2.21996 1.59202 0.624023 3.5607 0.624023H26.4314C28.4001 0.624023 29.9961 2.21995 29.9961 4.18863V8.41063H-0.00390625V4.18863Z" fill="#1E5B3D"/>
<g clip-path="url(#clip0_236_356)">
<path d="M0.908203 1.43262H29.0691V22.3638H0.908203V1.43262Z" fill="black"/>
<path d="M0.908203 1.43262H29.0691V15.3868H0.908203V1.43262Z" fill="white"/>
<path d="M0.908203 1.43262H29.0691V8.40969H0.908203V1.43262Z" fill="#007A3D"/>
</g>
<path d="M6.59804 14.1968L8.09334 9.59473L9.58864 14.1968L5.67383 11.3526H10.5127M20.4041 14.1968L21.8994 9.59473L23.3947 14.1968L19.4799 11.3526H24.3188M13.5009 14.1968L14.9962 9.59473L16.4915 14.1968L12.5767 11.3526H17.4156" fill="#CE1126"/>
<path opacity="0.2" d="M26.0519 1.43262H3.92544C2.25892 1.43262 0.908203 2.5664 0.908203 3.96526V4.80947C0.908203 3.41061 2.25892 2.27683 3.92544 2.27683H26.0519C27.7184 2.27683 29.0691 3.41061 29.0691 4.80947V3.96526C29.0691 2.5664 27.7184 1.43262 26.0519 1.43262Z" fill="white"/>
<defs>
<clipPath id="clip0_236_356">
<rect x="0.908203" y="1.43262" width="28.1609" height="20.9312" rx="3.16854" fill="white"/>
</clipPath>
</defs>
</svg>
