<svg width="76" height="76" viewBox="0 0 76 76" fill="none" xmlns="http://www.w3.org/2000/svg">
<path fill-rule="evenodd" clip-rule="evenodd" d="M11.8691 0.867188C5.79401 0.867188 0.869141 5.79205 0.869141 11.8672V64.8672C0.869141 70.9423 5.79401 75.8672 11.8691 75.8672H64.8691C70.9443 75.8672 75.8691 70.9423 75.8691 64.8672V11.8672C75.8691 5.79206 70.9443 0.867188 64.8691 0.867188H11.8691ZM24.7667 32.9262C26.5894 25.6625 31.1054 22.0443 38.3691 22.0443C45.1247 22.0443 48.1494 25.1311 50.8025 27.8386L50.8561 27.8933L50.9405 27.9777C52.5657 29.6034 54.0198 31.0579 56.0522 31.566C59.6705 32.4637 62.8534 31.1035 65.5739 27.4853C63.7512 34.749 59.2352 38.3672 51.9715 38.3672C45.2159 38.3672 42.1912 35.2804 39.5382 32.5729L39.4845 32.5182C37.8522 30.8587 36.3559 29.3624 34.2884 28.8455C30.6701 27.9478 27.4872 29.308 24.7667 32.9262ZM11.1643 49.2491C12.987 41.9854 17.503 38.3672 24.7667 38.3672C31.5223 38.3672 34.547 41.4539 37.2 44.1615L37.2537 44.2162L37.3381 44.3006C38.9633 45.9262 40.4174 47.3808 42.4498 47.8889C46.0681 48.7866 49.251 47.4264 51.9715 43.8081C50.1488 51.0718 45.6328 54.6901 38.3691 54.6901C31.6135 54.6901 28.5888 51.6033 25.9358 48.8958L25.8821 48.841L25.7977 48.7566C24.1725 47.131 22.7184 45.6765 20.686 45.1684C17.0677 44.2706 13.8848 45.6309 11.1643 49.2491Z" fill="black"/>
</svg>
