<svg width="78" height="77" viewBox="0 0 78 77" fill="none" xmlns="http://www.w3.org/2000/svg">
<path d="M65.5063 0.867188H13.0063C6.79314 0.867188 1.75635 5.90398 1.75635 12.1172V64.6172C1.75635 70.8304 6.79314 75.8672 13.0063 75.8672H65.5063C71.7196 75.8672 76.7563 70.8304 76.7563 64.6172V12.1172C76.7563 5.90398 71.7196 0.867188 65.5063 0.867188Z" fill="black" stroke="black" stroke-width="1.5625"/>
<path d="M35.8872 42.4687H45.2622V36.4629H19.0415V42.4687H28.4165V69.2754H35.8872V42.4687ZM48.1919 67.8105C49.3784 68.4258 50.8286 68.8799 52.4399 69.1875C54.0513 69.4951 55.8091 69.6416 57.5669 69.6416C59.3247 69.6416 60.936 69.4805 62.5474 69.1436C64.1587 68.8066 65.4771 68.25 66.6489 67.5322C67.8354 66.7559 68.8462 65.7744 69.4321 64.4561C70.0181 63.1377 70.4722 61.6729 70.4722 59.7686C70.4722 58.4355 70.2671 57.2783 69.8716 56.2529C69.4761 55.2275 68.9048 54.3486 68.1138 53.6162C67.3667 52.8398 66.5024 52.1514 65.4771 51.5654C64.4517 50.9795 63.2798 50.3643 61.9614 49.8076C60.9946 49.4121 60.2036 49.0313 59.3247 48.6504C58.563 48.2695 57.9038 47.8887 57.4204 47.5078C56.8784 47.1123 56.4683 46.7021 56.1753 46.2773C55.8823 45.8379 55.7358 45.3545 55.7358 44.8125C55.7358 44.3145 55.8662 43.8604 56.1313 43.4502C56.3965 43.04 56.7612 42.7031 57.23 42.4102C57.6987 42.1172 58.2847 41.8975 58.9878 41.7363C59.6763 41.5752 60.438 41.502 61.3315 41.502C61.9468 41.502 62.5913 41.5474 63.2358 41.6396C63.9097 41.7319 64.5981 41.874 65.2866 42.0645C65.9751 42.2549 66.6489 42.4893 67.3374 42.7822C67.9819 43.0752 68.5825 43.4121 69.0952 43.793V36.9082C67.9819 36.4834 66.7515 36.1611 65.4331 35.9561C64.1147 35.751 62.6499 35.6484 60.8921 35.6484C59.1343 35.6484 57.523 35.8389 55.9116 36.2051C54.3003 36.5713 52.9819 37.1572 51.8101 37.9629C50.6235 38.7539 49.7593 39.7207 49.0269 41.0391C48.3384 42.2695 48.0015 43.6758 48.0015 45.4336C48.0015 47.6309 48.6313 49.5352 49.9058 51C51.1655 52.6113 53.1284 53.7832 55.6187 54.9551C56.6294 55.3652 57.523 55.7754 58.4019 56.1709C59.2808 56.5664 60.0132 56.9766 60.5991 57.4014C61.229 57.8262 61.7271 58.2949 62.064 58.793C62.4302 59.291 62.6206 59.877 62.6206 60.5508C62.6206 61.0195 62.5063 61.459 62.2837 61.8691C62.061 62.2793 61.7124 62.6309 61.2437 62.9238C60.7749 63.2168 60.2036 63.4512 59.4858 63.627C58.7974 63.7881 58.021 63.876 56.9956 63.876C55.3843 63.876 53.773 63.5977 52.3081 63.041C50.6968 62.4844 49.2319 61.6494 48.1919 60.7793V67.8105Z" fill="white" stroke="black" stroke-width="1.5625"/>
</svg>
